<svg width="2080" height="1135" viewBox="0 0 2080 1135" fill="none" xmlns="http://www.w3.org/2000/svg">
<path d="M1235.66 20.5C1451.65 20.5001 1629.74 189.777 1649.51 407.045L1651.47 428.588L1672.88 425.475C1689 423.129 1705.42 421.811 1722.18 421.811C1907.93 421.811 2059.5 576.465 2059.5 768.169C2059.5 959.848 1908.06 1114.5 1722.18 1114.5H357.822C172.062 1114.5 20.5 960 20.5 768.169C20.5002 576.342 172.06 421.806 357.829 421.672C387.196 421.672 415.797 425.584 442.976 432.884L461.869 437.958L467.821 419.322C512.14 280.551 639.11 180.941 788.304 180.941C821.355 180.941 853.229 185.889 883.341 195.027L897.093 199.2L905.705 187.695C981.883 85.935 1101.41 20.5 1235.66 20.5Z" fill="white" stroke="#38B6FF" stroke-width="41"/>
<path d="M1475.41 364.216C1469.53 358.417 1461.47 354.828 1452.55 354.828H1452.19L1381.05 355.556V283.313C1381.05 274.315 1377.38 266.175 1371.5 260.272C1365.31 254.811 1357.31 251.326 1348.49 250.806H1348.39C1341.18 250.286 1332.76 250 1324.28 250C1233.85 250 1151.24 283.417 1088.08 338.601L1088.5 338.237C1025.78 283.417 943.15 250 852.717 250C844.24 250 835.815 250.286 827.469 250.884L828.587 250.832C827.885 250.78 827.053 250.728 826.247 250.728C817.978 250.728 810.568 254.421 805.575 260.272L805.549 260.298C799.647 266.175 795.981 274.341 795.981 283.339V355.582L724.814 354.854C724.58 354.854 724.294 354.854 724.008 354.854C715.246 354.854 707.315 358.443 701.647 364.268C695.692 370.171 692 378.337 692 387.387V1011.52C692 1029.46 706.535 1044 724.476 1044C730.092 1044 735.397 1042.57 739.999 1040.05L739.817 1040.13C787.556 1011.86 845.046 995.136 906.436 995.136C967.618 995.136 1024.9 1011.73 1074.1 1040.67L1072.53 1039.84C1073.42 1040.26 1074.56 1040.67 1075.71 1041.04L1075.94 1041.09C1077.19 1041.69 1078.7 1042.26 1080.26 1042.73L1080.49 1042.78C1080.96 1042.91 1081.38 1043.19 1081.84 1043.27L1081.9 1043.32H1082.05C1082.86 1043.48 1083.66 1043.64 1084.47 1043.74H1084.57L1084.7 1043.79C1085.77 1043.92 1086.99 1044 1088.24 1044C1088.32 1044 1088.4 1044 1088.47 1044H1088.55H1088.58C1089.67 1044 1090.76 1043.95 1091.85 1043.84H1091.91C1093.49 1043.66 1094.87 1043.4 1096.22 1043.09L1095.96 1043.14H1096.04C1096.43 1043.04 1096.79 1042.8 1097.18 1042.7C1098.54 1042.26 1099.63 1041.82 1100.69 1041.32L1100.49 1041.4C1102.07 1040.88 1103.4 1040.36 1104.65 1039.76L1104.44 1039.84C1152.05 1011.73 1209.36 995.11 1270.54 995.11C1331.93 995.11 1389.42 1011.83 1438.72 1040.98L1437.18 1040.15C1441.63 1042.57 1446.91 1044 1452.52 1044C1470.47 1044 1485 1029.46 1485 1011.52V387.387C1485 378.363 1481.31 370.171 1475.35 364.268L1475.41 364.216ZM757.004 960.314V420.18L796.007 420.596V907.471C796.007 923.569 807.682 936.935 823.023 939.536L823.205 939.562C797.515 945.413 775.413 952.565 754.17 961.381L756.978 960.34L757.004 960.314ZM861.011 875.848V316.886C862.415 316.86 864.053 316.834 865.717 316.834C940.55 316.834 1008.08 348.145 1055.92 398.387L1056.02 398.491V935.115C1000.93 898.967 933.634 877.019 861.323 875.848H861.011ZM1316.04 875.848C1243.42 877.019 1176.13 898.967 1119.62 935.999L1121.03 935.141V398.517C1168.98 348.171 1236.53 316.86 1311.36 316.86C1313 316.86 1314.64 316.886 1316.27 316.912H1316.04V875.848ZM1420.05 960.314C1401.61 952.513 1379.49 945.387 1356.68 940.108L1353.85 939.562C1369.37 936.909 1381.07 923.543 1381.07 907.471V420.596L1420.07 420.18L1420.05 960.314Z" fill="#38B6FF"/>
</svg>
